<mxfile host="65bd71144e">
    <diagram name="PÃ¡gina-1" id="Eu4XwUZdDc6uNPrccZpu">
        <mxGraphModel dx="2503" dy="803" grid="1" gridSize="10" guides="1" tooltips="1" connect="1" arrows="1" fold="1" page="1" pageScale="1" pageWidth="827" pageHeight="1169" math="0" shadow="0">
            <root>
                <mxCell id="0"/>
                <mxCell id="1" parent="0"/>
                <mxCell id="ycZCQAcui8uYunFxQiJW-2" value="Dominio" style="swimlane;whiteSpace=wrap;html=1;" parent="1" vertex="1">
                    <mxGeometry x="10" y="40" width="610" height="860" as="geometry"/>
                </mxCell>
                <mxCell id="ycZCQAcui8uYunFxQiJW-3" value="Persona" style="whiteSpace=wrap;html=1;aspect=fixed;" parent="ycZCQAcui8uYunFxQiJW-2" vertex="1">
                    <mxGeometry x="95" y="30" width="80" height="80" as="geometry"/>
                </mxCell>
                <mxCell id="ycZCQAcui8uYunFxQiJW-8" style="edgeStyle=orthogonalEdgeStyle;rounded=0;orthogonalLoop=1;jettySize=auto;html=1;entryX=0.5;entryY=1;entryDx=0;entryDy=0;dashed=1;" parent="ycZCQAcui8uYunFxQiJW-2" source="ycZCQAcui8uYunFxQiJW-4" target="ycZCQAcui8uYunFxQiJW-3" edge="1">
                    <mxGeometry relative="1" as="geometry">
                        <Array as="points">
                            <mxPoint x="50" y="120"/>
                            <mxPoint x="135" y="120"/>
                        </Array>
                    </mxGeometry>
                </mxCell>
                <mxCell id="ycZCQAcui8uYunFxQiJW-4" value="Vendedor" style="whiteSpace=wrap;html=1;aspect=fixed;" parent="ycZCQAcui8uYunFxQiJW-2" vertex="1">
                    <mxGeometry x="10" y="140" width="80" height="80" as="geometry"/>
                </mxCell>
                <mxCell id="ycZCQAcui8uYunFxQiJW-9" style="edgeStyle=orthogonalEdgeStyle;rounded=0;orthogonalLoop=1;jettySize=auto;html=1;dashed=1;" parent="ycZCQAcui8uYunFxQiJW-2" source="ycZCQAcui8uYunFxQiJW-5" target="ycZCQAcui8uYunFxQiJW-3" edge="1">
                    <mxGeometry relative="1" as="geometry"/>
                </mxCell>
                <mxCell id="ycZCQAcui8uYunFxQiJW-5" value="Cliente" style="whiteSpace=wrap;html=1;aspect=fixed;" parent="ycZCQAcui8uYunFxQiJW-2" vertex="1">
                    <mxGeometry x="95" y="140" width="80" height="80" as="geometry"/>
                </mxCell>
                <mxCell id="ycZCQAcui8uYunFxQiJW-10" style="edgeStyle=orthogonalEdgeStyle;rounded=0;orthogonalLoop=1;jettySize=auto;html=1;entryX=0.5;entryY=1;entryDx=0;entryDy=0;dashed=1;" parent="ycZCQAcui8uYunFxQiJW-2" source="ycZCQAcui8uYunFxQiJW-6" target="ycZCQAcui8uYunFxQiJW-3" edge="1">
                    <mxGeometry relative="1" as="geometry">
                        <Array as="points">
                            <mxPoint x="220" y="120"/>
                            <mxPoint x="135" y="120"/>
                        </Array>
                    </mxGeometry>
                </mxCell>
                <mxCell id="ycZCQAcui8uYunFxQiJW-6" value="Proveedor" style="whiteSpace=wrap;html=1;aspect=fixed;" parent="ycZCQAcui8uYunFxQiJW-2" vertex="1">
                    <mxGeometry x="180" y="140" width="80" height="80" as="geometry"/>
                </mxCell>
                <mxCell id="ycZCQAcui8uYunFxQiJW-11" value="N&lt;span style=&quot;background-color: initial;&quot;&gt;egocio&lt;/span&gt;" style="swimlane;whiteSpace=wrap;html=1;" parent="1" vertex="1">
                    <mxGeometry x="670" y="18" width="920" height="882" as="geometry"/>
                </mxCell>
                <mxCell id="32" value="SimpleORM" style="swimlane;fontStyle=1;align=center;verticalAlign=top;childLayout=stackLayout;horizontal=1;startSize=24.8;horizontalStack=0;resizeParent=1;resizeParentMax=0;resizeLast=0;collapsible=0;marginBottom=0;" vertex="1" parent="ycZCQAcui8uYunFxQiJW-11">
                    <mxGeometry x="350" y="42" width="544" height="382.8" as="geometry"/>
                </mxCell>
                <mxCell id="33" value="-Connection connection" style="text;strokeColor=none;fillColor=none;align=left;verticalAlign=top;spacingLeft=4;spacingRight=4;overflow=hidden;rotatable=0;points=[[0,0.5],[1,0.5]];portConstraint=eastwest;" vertex="1" parent="32">
                    <mxGeometry y="24.8" width="544" height="25" as="geometry"/>
                </mxCell>
                <mxCell id="34" style="line;strokeWidth=1;fillColor=none;align=left;verticalAlign=middle;spacingTop=-1;spacingLeft=3;spacingRight=3;rotatable=0;labelPosition=right;points=[];portConstraint=eastwest;strokeColor=inherit;" vertex="1" parent="32">
                    <mxGeometry y="49.8" width="544" height="8" as="geometry"/>
                </mxCell>
                <mxCell id="35" value="+SimpleORM(Connection connection)" style="text;strokeColor=none;fillColor=none;align=left;verticalAlign=top;spacingLeft=4;spacingRight=4;overflow=hidden;rotatable=0;points=[[0,0.5],[1,0.5]];portConstraint=eastwest;" vertex="1" parent="32">
                    <mxGeometry y="57.8" width="544" height="25" as="geometry"/>
                </mxCell>
                <mxCell id="36" value="+create(T entity) : boolean" style="text;strokeColor=none;fillColor=none;align=left;verticalAlign=top;spacingLeft=4;spacingRight=4;overflow=hidden;rotatable=0;points=[[0,0.5],[1,0.5]];portConstraint=eastwest;" vertex="1" parent="32">
                    <mxGeometry y="82.8" width="544" height="25" as="geometry"/>
                </mxCell>
                <mxCell id="37" value="+findById(Class clazz, int id) : T" style="text;strokeColor=none;fillColor=none;align=left;verticalAlign=top;spacingLeft=4;spacingRight=4;overflow=hidden;rotatable=0;points=[[0,0.5],[1,0.5]];portConstraint=eastwest;" vertex="1" parent="32">
                    <mxGeometry y="107.8" width="544" height="25" as="geometry"/>
                </mxCell>
                <mxCell id="38" value="+update(T entity, Map values, int id) : boolean" style="text;strokeColor=none;fillColor=none;align=left;verticalAlign=top;spacingLeft=4;spacingRight=4;overflow=hidden;rotatable=0;points=[[0,0.5],[1,0.5]];portConstraint=eastwest;" vertex="1" parent="32">
                    <mxGeometry y="132.8" width="544" height="25" as="geometry"/>
                </mxCell>
                <mxCell id="39" value="+getIdFieldValue(Object entity, String query, String column) : Object" style="text;strokeColor=none;fillColor=none;align=left;verticalAlign=top;spacingLeft=4;spacingRight=4;overflow=hidden;rotatable=0;points=[[0,0.5],[1,0.5]];portConstraint=eastwest;" vertex="1" parent="32">
                    <mxGeometry y="157.8" width="544" height="25" as="geometry"/>
                </mxCell>
                <mxCell id="40" value="+delete(Class clazz, int id) : boolean" style="text;strokeColor=none;fillColor=none;align=left;verticalAlign=top;spacingLeft=4;spacingRight=4;overflow=hidden;rotatable=0;points=[[0,0.5],[1,0.5]];portConstraint=eastwest;" vertex="1" parent="32">
                    <mxGeometry y="182.8" width="544" height="25" as="geometry"/>
                </mxCell>
                <mxCell id="41" value="+getTableName(Class clazz) : String" style="text;strokeColor=none;fillColor=none;align=left;verticalAlign=top;spacingLeft=4;spacingRight=4;overflow=hidden;rotatable=0;points=[[0,0.5],[1,0.5]];portConstraint=eastwest;" vertex="1" parent="32">
                    <mxGeometry y="207.8" width="544" height="25" as="geometry"/>
                </mxCell>
                <mxCell id="42" value="+findByField(Class clazz, String fieldName, Object value) : T" style="text;strokeColor=none;fillColor=none;align=left;verticalAlign=top;spacingLeft=4;spacingRight=4;overflow=hidden;rotatable=0;points=[[0,0.5],[1,0.5]];portConstraint=eastwest;" vertex="1" parent="32">
                    <mxGeometry y="232.8" width="544" height="25" as="geometry"/>
                </mxCell>
                <mxCell id="43" value="+generateCsv(Class type) : String" style="text;strokeColor=none;fillColor=none;align=left;verticalAlign=top;spacingLeft=4;spacingRight=4;overflow=hidden;rotatable=0;points=[[0,0.5],[1,0.5]];portConstraint=eastwest;" vertex="1" parent="32">
                    <mxGeometry y="257.8" width="544" height="25" as="geometry"/>
                </mxCell>
                <mxCell id="44" value="-addHeaders(Class currentClass, List columnNames, StringBuilder header)" style="text;strokeColor=none;fillColor=none;align=left;verticalAlign=top;spacingLeft=4;spacingRight=4;overflow=hidden;rotatable=0;points=[[0,0.5],[1,0.5]];portConstraint=eastwest;" vertex="1" parent="32">
                    <mxGeometry y="282.8" width="544" height="25" as="geometry"/>
                </mxCell>
                <mxCell id="45" value="-checkForDatabase() : void" style="text;strokeColor=none;fillColor=none;align=left;verticalAlign=top;spacingLeft=4;spacingRight=4;overflow=hidden;rotatable=0;points=[[0,0.5],[1,0.5]];portConstraint=eastwest;" vertex="1" parent="32">
                    <mxGeometry y="307.8" width="544" height="25" as="geometry"/>
                </mxCell>
                <mxCell id="46" value="-createTables() : void" style="text;strokeColor=none;fillColor=none;align=left;verticalAlign=top;spacingLeft=4;spacingRight=4;overflow=hidden;rotatable=0;points=[[0,0.5],[1,0.5]];portConstraint=eastwest;" vertex="1" parent="32">
                    <mxGeometry y="332.8" width="544" height="25" as="geometry"/>
                </mxCell>
                <mxCell id="47" value="-seed() : void" style="text;strokeColor=none;fillColor=none;align=left;verticalAlign=top;spacingLeft=4;spacingRight=4;overflow=hidden;rotatable=0;points=[[0,0.5],[1,0.5]];portConstraint=eastwest;" vertex="1" parent="32">
                    <mxGeometry y="357.8" width="544" height="25" as="geometry"/>
                </mxCell>
                <mxCell id="ycZCQAcui8uYunFxQiJW-45" value="" style="edgeStyle=orthogonalEdgeStyle;rounded=0;orthogonalLoop=1;jettySize=auto;html=1;" parent="1" source="ycZCQAcui8uYunFxQiJW-25" target="ycZCQAcui8uYunFxQiJW-35" edge="1">
                    <mxGeometry relative="1" as="geometry"/>
                </mxCell>
                <mxCell id="ycZCQAcui8uYunFxQiJW-25" value="Producto" style="swimlane;fontStyle=0;childLayout=stackLayout;horizontal=1;startSize=26;fillColor=none;horizontalStack=0;resizeParent=1;resizeParentMax=0;resizeLast=0;collapsible=1;marginBottom=0;whiteSpace=wrap;html=1;" parent="1" vertex="1">
                    <mxGeometry x="10" y="360" width="150" height="312" as="geometry"/>
                </mxCell>
                <mxCell id="ycZCQAcui8uYunFxQiJW-26" value="+ c&lt;span style=&quot;background-color: initial;&quot;&gt;ode: String&lt;/span&gt;" style="text;strokeColor=none;fillColor=none;align=left;verticalAlign=top;spacingLeft=4;spacingRight=4;overflow=hidden;rotatable=0;points=[[0,0.5],[1,0.5]];portConstraint=eastwest;whiteSpace=wrap;html=1;" parent="ycZCQAcui8uYunFxQiJW-25" vertex="1">
                    <mxGeometry y="26" width="150" height="26" as="geometry"/>
                </mxCell>
                <mxCell id="ycZCQAcui8uYunFxQiJW-30" value="+ name: string" style="text;strokeColor=none;fillColor=none;align=left;verticalAlign=top;spacingLeft=4;spacingRight=4;overflow=hidden;rotatable=0;points=[[0,0.5],[1,0.5]];portConstraint=eastwest;whiteSpace=wrap;html=1;" parent="ycZCQAcui8uYunFxQiJW-25" vertex="1">
                    <mxGeometry y="52" width="150" height="26" as="geometry"/>
                </mxCell>
                <mxCell id="ycZCQAcui8uYunFxQiJW-31" value="+ description: string" style="text;strokeColor=none;fillColor=none;align=left;verticalAlign=top;spacingLeft=4;spacingRight=4;overflow=hidden;rotatable=0;points=[[0,0.5],[1,0.5]];portConstraint=eastwest;whiteSpace=wrap;html=1;" parent="ycZCQAcui8uYunFxQiJW-25" vertex="1">
                    <mxGeometry y="78" width="150" height="26" as="geometry"/>
                </mxCell>
                <mxCell id="ycZCQAcui8uYunFxQiJW-27" value="+ category: category" style="text;strokeColor=none;fillColor=none;align=left;verticalAlign=top;spacingLeft=4;spacingRight=4;overflow=hidden;rotatable=0;points=[[0,0.5],[1,0.5]];portConstraint=eastwest;whiteSpace=wrap;html=1;" parent="ycZCQAcui8uYunFxQiJW-25" vertex="1">
                    <mxGeometry y="104" width="150" height="26" as="geometry"/>
                </mxCell>
                <mxCell id="ycZCQAcui8uYunFxQiJW-28" value="+ provider: Provider" style="text;strokeColor=none;fillColor=none;align=left;verticalAlign=top;spacingLeft=4;spacingRight=4;overflow=hidden;rotatable=0;points=[[0,0.5],[1,0.5]];portConstraint=eastwest;whiteSpace=wrap;html=1;" parent="ycZCQAcui8uYunFxQiJW-25" vertex="1">
                    <mxGeometry y="130" width="150" height="26" as="geometry"/>
                </mxCell>
                <mxCell id="ycZCQAcui8uYunFxQiJW-29" value="+ price: double" style="text;strokeColor=none;fillColor=none;align=left;verticalAlign=top;spacingLeft=4;spacingRight=4;overflow=hidden;rotatable=0;points=[[0,0.5],[1,0.5]];portConstraint=eastwest;whiteSpace=wrap;html=1;" parent="ycZCQAcui8uYunFxQiJW-25" vertex="1">
                    <mxGeometry y="156" width="150" height="26" as="geometry"/>
                </mxCell>
                <mxCell id="ycZCQAcui8uYunFxQiJW-32" value="+ image: string" style="text;strokeColor=none;fillColor=none;align=left;verticalAlign=top;spacingLeft=4;spacingRight=4;overflow=hidden;rotatable=0;points=[[0,0.5],[1,0.5]];portConstraint=eastwest;whiteSpace=wrap;html=1;" parent="ycZCQAcui8uYunFxQiJW-25" vertex="1">
                    <mxGeometry y="182" width="150" height="26" as="geometry"/>
                </mxCell>
                <mxCell id="ycZCQAcui8uYunFxQiJW-33" value="+ tags: String[]" style="text;strokeColor=none;fillColor=none;align=left;verticalAlign=top;spacingLeft=4;spacingRight=4;overflow=hidden;rotatable=0;points=[[0,0.5],[1,0.5]];portConstraint=eastwest;whiteSpace=wrap;html=1;" parent="ycZCQAcui8uYunFxQiJW-25" vertex="1">
                    <mxGeometry y="208" width="150" height="26" as="geometry"/>
                </mxCell>
                <mxCell id="ycZCQAcui8uYunFxQiJW-34" value="+ stock: int" style="text;strokeColor=none;fillColor=none;align=left;verticalAlign=top;spacingLeft=4;spacingRight=4;overflow=hidden;rotatable=0;points=[[0,0.5],[1,0.5]];portConstraint=eastwest;whiteSpace=wrap;html=1;" parent="ycZCQAcui8uYunFxQiJW-25" vertex="1">
                    <mxGeometry y="234" width="150" height="26" as="geometry"/>
                </mxCell>
                <mxCell id="ycZCQAcui8uYunFxQiJW-48" value="+ parts: Product[]" style="text;strokeColor=none;fillColor=none;align=left;verticalAlign=top;spacingLeft=4;spacingRight=4;overflow=hidden;rotatable=0;points=[[0,0.5],[1,0.5]];portConstraint=eastwest;whiteSpace=wrap;html=1;" parent="ycZCQAcui8uYunFxQiJW-25" vertex="1">
                    <mxGeometry y="260" width="150" height="26" as="geometry"/>
                </mxCell>
                <mxCell id="ycZCQAcui8uYunFxQiJW-49" value="+ model&lt;span style=&quot;background-color: initial;&quot;&gt;: Model&lt;/span&gt;" style="text;strokeColor=none;fillColor=none;align=left;verticalAlign=top;spacingLeft=4;spacingRight=4;overflow=hidden;rotatable=0;points=[[0,0.5],[1,0.5]];portConstraint=eastwest;whiteSpace=wrap;html=1;" parent="ycZCQAcui8uYunFxQiJW-25" vertex="1">
                    <mxGeometry y="286" width="150" height="26" as="geometry"/>
                </mxCell>
                <mxCell id="ycZCQAcui8uYunFxQiJW-35" value="Category" style="swimlane;fontStyle=0;childLayout=stackLayout;horizontal=1;startSize=26;fillColor=none;horizontalStack=0;resizeParent=1;resizeParentMax=0;resizeLast=0;collapsible=1;marginBottom=0;whiteSpace=wrap;html=1;" parent="1" vertex="1">
                    <mxGeometry x="240" y="360" width="190" height="130" as="geometry"/>
                </mxCell>
                <mxCell id="ycZCQAcui8uYunFxQiJW-39" value="+ name&lt;span style=&quot;background-color: initial;&quot;&gt;: category&lt;/span&gt;" style="text;strokeColor=none;fillColor=none;align=left;verticalAlign=top;spacingLeft=4;spacingRight=4;overflow=hidden;rotatable=0;points=[[0,0.5],[1,0.5]];portConstraint=eastwest;whiteSpace=wrap;html=1;" parent="ycZCQAcui8uYunFxQiJW-35" vertex="1">
                    <mxGeometry y="26" width="190" height="26" as="geometry"/>
                </mxCell>
                <mxCell id="ycZCQAcui8uYunFxQiJW-47" value="+ description: string" style="text;strokeColor=none;fillColor=none;align=left;verticalAlign=top;spacingLeft=4;spacingRight=4;overflow=hidden;rotatable=0;points=[[0,0.5],[1,0.5]];portConstraint=eastwest;whiteSpace=wrap;html=1;" parent="ycZCQAcui8uYunFxQiJW-35" vertex="1">
                    <mxGeometry y="52" width="190" height="26" as="geometry"/>
                </mxCell>
                <mxCell id="ycZCQAcui8uYunFxQiJW-43" value="+ tags: String[]" style="text;strokeColor=none;fillColor=none;align=left;verticalAlign=top;spacingLeft=4;spacingRight=4;overflow=hidden;rotatable=0;points=[[0,0.5],[1,0.5]];portConstraint=eastwest;whiteSpace=wrap;html=1;" parent="ycZCQAcui8uYunFxQiJW-35" vertex="1">
                    <mxGeometry y="78" width="190" height="26" as="geometry"/>
                </mxCell>
                <mxCell id="ycZCQAcui8uYunFxQiJW-46" value="+ type: enum[]" style="text;strokeColor=none;fillColor=none;align=left;verticalAlign=top;spacingLeft=4;spacingRight=4;overflow=hidden;rotatable=0;points=[[0,0.5],[1,0.5]];portConstraint=eastwest;whiteSpace=wrap;html=1;" parent="ycZCQAcui8uYunFxQiJW-35" vertex="1">
                    <mxGeometry y="104" width="190" height="26" as="geometry"/>
                </mxCell>
                <mxCell id="ycZCQAcui8uYunFxQiJW-51" value="Modelo" style="swimlane;fontStyle=0;childLayout=stackLayout;horizontal=1;startSize=26;fillColor=none;horizontalStack=0;resizeParent=1;resizeParentMax=0;resizeLast=0;collapsible=1;marginBottom=0;whiteSpace=wrap;html=1;" parent="1" vertex="1">
                    <mxGeometry x="240" y="550" width="140" height="104" as="geometry"/>
                </mxCell>
                <mxCell id="ycZCQAcui8uYunFxQiJW-52" value="+ modelo: String" style="text;strokeColor=none;fillColor=none;align=left;verticalAlign=top;spacingLeft=4;spacingRight=4;overflow=hidden;rotatable=0;points=[[0,0.5],[1,0.5]];portConstraint=eastwest;whiteSpace=wrap;html=1;" parent="ycZCQAcui8uYunFxQiJW-51" vertex="1">
                    <mxGeometry y="26" width="140" height="26" as="geometry"/>
                </mxCell>
                <mxCell id="ycZCQAcui8uYunFxQiJW-54" value="+ description: String" style="text;strokeColor=none;fillColor=none;align=left;verticalAlign=top;spacingLeft=4;spacingRight=4;overflow=hidden;rotatable=0;points=[[0,0.5],[1,0.5]];portConstraint=eastwest;whiteSpace=wrap;html=1;" parent="ycZCQAcui8uYunFxQiJW-51" vertex="1">
                    <mxGeometry y="52" width="140" height="26" as="geometry"/>
                </mxCell>
                <mxCell id="ycZCQAcui8uYunFxQiJW-55" value="+ marca: Marca" style="text;strokeColor=none;fillColor=none;align=left;verticalAlign=top;spacingLeft=4;spacingRight=4;overflow=hidden;rotatable=0;points=[[0,0.5],[1,0.5]];portConstraint=eastwest;whiteSpace=wrap;html=1;" parent="ycZCQAcui8uYunFxQiJW-51" vertex="1">
                    <mxGeometry y="78" width="140" height="26" as="geometry"/>
                </mxCell>
                <mxCell id="ycZCQAcui8uYunFxQiJW-50" style="edgeStyle=orthogonalEdgeStyle;rounded=0;orthogonalLoop=1;jettySize=auto;html=1;entryX=-0.014;entryY=0.769;entryDx=0;entryDy=0;entryPerimeter=0;" parent="1" source="ycZCQAcui8uYunFxQiJW-49" target="ycZCQAcui8uYunFxQiJW-52" edge="1">
                    <mxGeometry relative="1" as="geometry">
                        <mxPoint x="240" y="659" as="targetPoint"/>
                    </mxGeometry>
                </mxCell>
                <mxCell id="ycZCQAcui8uYunFxQiJW-56" value="Marca" style="swimlane;fontStyle=0;childLayout=stackLayout;horizontal=1;startSize=26;fillColor=none;horizontalStack=0;resizeParent=1;resizeParentMax=0;resizeLast=0;collapsible=1;marginBottom=0;whiteSpace=wrap;html=1;" parent="1" vertex="1">
                    <mxGeometry x="420" y="550" width="140" height="78" as="geometry"/>
                </mxCell>
                <mxCell id="ycZCQAcui8uYunFxQiJW-57" value="+ cod: String" style="text;strokeColor=none;fillColor=none;align=left;verticalAlign=top;spacingLeft=4;spacingRight=4;overflow=hidden;rotatable=0;points=[[0,0.5],[1,0.5]];portConstraint=eastwest;whiteSpace=wrap;html=1;" parent="ycZCQAcui8uYunFxQiJW-56" vertex="1">
                    <mxGeometry y="26" width="140" height="26" as="geometry"/>
                </mxCell>
                <mxCell id="ycZCQAcui8uYunFxQiJW-58" value="+ name: String" style="text;strokeColor=none;fillColor=none;align=left;verticalAlign=top;spacingLeft=4;spacingRight=4;overflow=hidden;rotatable=0;points=[[0,0.5],[1,0.5]];portConstraint=eastwest;whiteSpace=wrap;html=1;" parent="ycZCQAcui8uYunFxQiJW-56" vertex="1">
                    <mxGeometry y="52" width="140" height="26" as="geometry"/>
                </mxCell>
                <mxCell id="ycZCQAcui8uYunFxQiJW-60" style="edgeStyle=orthogonalEdgeStyle;rounded=0;orthogonalLoop=1;jettySize=auto;html=1;" parent="1" source="ycZCQAcui8uYunFxQiJW-55" target="ycZCQAcui8uYunFxQiJW-57" edge="1">
                    <mxGeometry relative="1" as="geometry"/>
                </mxCell>
                <mxCell id="ycZCQAcui8uYunFxQiJW-61" value="Order" style="swimlane;fontStyle=0;childLayout=stackLayout;horizontal=1;startSize=26;fillColor=none;horizontalStack=0;resizeParent=1;resizeParentMax=0;resizeLast=0;collapsible=1;marginBottom=0;whiteSpace=wrap;html=1;" parent="1" vertex="1">
                    <mxGeometry x="9" y="693" width="140" height="156" as="geometry"/>
                </mxCell>
                <mxCell id="ycZCQAcui8uYunFxQiJW-62" value="+ date: Date" style="text;strokeColor=none;fillColor=none;align=left;verticalAlign=top;spacingLeft=4;spacingRight=4;overflow=hidden;rotatable=0;points=[[0,0.5],[1,0.5]];portConstraint=eastwest;whiteSpace=wrap;html=1;" parent="ycZCQAcui8uYunFxQiJW-61" vertex="1">
                    <mxGeometry y="26" width="140" height="26" as="geometry"/>
                </mxCell>
                <mxCell id="ycZCQAcui8uYunFxQiJW-63" value="+ seller: Vendedor" style="text;strokeColor=none;fillColor=none;align=left;verticalAlign=top;spacingLeft=4;spacingRight=4;overflow=hidden;rotatable=0;points=[[0,0.5],[1,0.5]];portConstraint=eastwest;whiteSpace=wrap;html=1;" parent="ycZCQAcui8uYunFxQiJW-61" vertex="1">
                    <mxGeometry y="52" width="140" height="26" as="geometry"/>
                </mxCell>
                <mxCell id="ycZCQAcui8uYunFxQiJW-64" value="+ client: Cliente" style="text;strokeColor=none;fillColor=none;align=left;verticalAlign=top;spacingLeft=4;spacingRight=4;overflow=hidden;rotatable=0;points=[[0,0.5],[1,0.5]];portConstraint=eastwest;whiteSpace=wrap;html=1;" parent="ycZCQAcui8uYunFxQiJW-61" vertex="1">
                    <mxGeometry y="78" width="140" height="26" as="geometry"/>
                </mxCell>
                <mxCell id="ycZCQAcui8uYunFxQiJW-65" value="+ status: enum []" style="text;strokeColor=none;fillColor=none;align=left;verticalAlign=top;spacingLeft=4;spacingRight=4;overflow=hidden;rotatable=0;points=[[0,0.5],[1,0.5]];portConstraint=eastwest;whiteSpace=wrap;html=1;" parent="ycZCQAcui8uYunFxQiJW-61" vertex="1">
                    <mxGeometry y="104" width="140" height="26" as="geometry"/>
                </mxCell>
                <mxCell id="ycZCQAcui8uYunFxQiJW-66" value="+ details: Detalle[]" style="text;strokeColor=none;fillColor=none;align=left;verticalAlign=top;spacingLeft=4;spacingRight=4;overflow=hidden;rotatable=0;points=[[0,0.5],[1,0.5]];portConstraint=eastwest;whiteSpace=wrap;html=1;" parent="ycZCQAcui8uYunFxQiJW-61" vertex="1">
                    <mxGeometry y="130" width="140" height="26" as="geometry"/>
                </mxCell>
                <mxCell id="ycZCQAcui8uYunFxQiJW-67" value="Order_details" style="swimlane;fontStyle=0;childLayout=stackLayout;horizontal=1;startSize=26;fillColor=none;horizontalStack=0;resizeParent=1;resizeParentMax=0;resizeLast=0;collapsible=1;marginBottom=0;whiteSpace=wrap;html=1;" parent="1" vertex="1">
                    <mxGeometry x="234" y="719" width="140" height="130" as="geometry"/>
                </mxCell>
                <mxCell id="ycZCQAcui8uYunFxQiJW-68" value="+ product: Producto" style="text;strokeColor=none;fillColor=none;align=left;verticalAlign=top;spacingLeft=4;spacingRight=4;overflow=hidden;rotatable=0;points=[[0,0.5],[1,0.5]];portConstraint=eastwest;whiteSpace=wrap;html=1;" parent="ycZCQAcui8uYunFxQiJW-67" vertex="1">
                    <mxGeometry y="26" width="140" height="26" as="geometry"/>
                </mxCell>
                <mxCell id="ycZCQAcui8uYunFxQiJW-69" value="+ quantity: int" style="text;strokeColor=none;fillColor=none;align=left;verticalAlign=top;spacingLeft=4;spacingRight=4;overflow=hidden;rotatable=0;points=[[0,0.5],[1,0.5]];portConstraint=eastwest;whiteSpace=wrap;html=1;" parent="ycZCQAcui8uYunFxQiJW-67" vertex="1">
                    <mxGeometry y="52" width="140" height="26" as="geometry"/>
                </mxCell>
                <mxCell id="ycZCQAcui8uYunFxQiJW-70" value="+ price: double" style="text;strokeColor=none;fillColor=none;align=left;verticalAlign=top;spacingLeft=4;spacingRight=4;overflow=hidden;rotatable=0;points=[[0,0.5],[1,0.5]];portConstraint=eastwest;whiteSpace=wrap;html=1;" parent="ycZCQAcui8uYunFxQiJW-67" vertex="1">
                    <mxGeometry y="78" width="140" height="26" as="geometry"/>
                </mxCell>
                <mxCell id="ycZCQAcui8uYunFxQiJW-72" value="+ discount: int" style="text;strokeColor=none;fillColor=none;align=left;verticalAlign=top;spacingLeft=4;spacingRight=4;overflow=hidden;rotatable=0;points=[[0,0.5],[1,0.5]];portConstraint=eastwest;whiteSpace=wrap;html=1;" parent="ycZCQAcui8uYunFxQiJW-67" vertex="1">
                    <mxGeometry y="104" width="140" height="26" as="geometry"/>
                </mxCell>
                <mxCell id="ycZCQAcui8uYunFxQiJW-71" style="edgeStyle=orthogonalEdgeStyle;rounded=0;orthogonalLoop=1;jettySize=auto;html=1;" parent="1" source="ycZCQAcui8uYunFxQiJW-66" target="ycZCQAcui8uYunFxQiJW-68" edge="1">
                    <mxGeometry relative="1" as="geometry"/>
                </mxCell>
            </root>
        </mxGraphModel>
    </diagram>
</mxfile>